<svg width="30" height="30" viewBox="0 0 30 30" fill="none" xmlns="http://www.w3.org/2000/svg">
<path d="M23.125 15C23.125 15.5469 22.6953 15.9375 22.1875 15.9375H15.9375V22.1875C15.9375 22.7344 15.5078 23.1641 15 23.1641C14.4531 23.1641 14.0625 22.7344 14.0625 22.1875V15.9375H7.8125C7.26562 15.9375 6.875 15.5469 6.875 15.0391C6.875 14.4922 7.26562 14.0625 7.8125 14.0625H14.0625V7.8125C14.0625 7.30469 14.4531 6.91406 15 6.91406C15.5078 6.91406 15.9375 7.30469 15.9375 7.8125V14.0625H22.1875C22.6953 14.0625 23.125 14.4922 23.125 15Z" fill="#2C64E3"/>
</svg>
