<svg width="24" height="24" viewBox="0 0 24 24" fill="none" xmlns="http://www.w3.org/2000/svg">
<path d="M7.25 13.5C5.71875 13.5 4.5 12.2812 4.5 10.75C4.5 9.25 5.71875 8 7.25 8C8.75 8 10 9.25 10 10.75C10 12.2812 8.75 13.5 7.25 13.5ZM7.25 9.5C6.53125 9.5 6 10.0625 6 10.75C6 11.4375 6.53125 12 7.25 12C7.90625 12 8.5 11.4375 8.5 10.75C8.5 10.0625 7.90625 9.5 7.25 9.5ZM18.5 8C20.4062 8 22 9.59375 22 11.5V18.25C22 18.6875 21.6562 19 21.25 19C20.8125 19 20.5 18.6875 20.5 18.25V16H3.5V18.25C3.5 18.6875 3.09375 19 2.71875 19C2.3125 19 2 18.6875 2 18.25V5.75C2 5.34375 2.3125 5 2.75 5C3.15625 5 3.5 5.34375 3.5 5.75V14.5H11V8.5C11 8.25 11.2188 8 11.5 8H18.5ZM20.5 14.5V11.5C20.5 10.4062 19.5938 9.5 18.5 9.5H12.5V14.5H20.5Z" fill="#4D4D4D"/>
</svg>
