<svg width="24" height="24" viewBox="0 0 24 24" fill="none" xmlns="http://www.w3.org/2000/svg">
<path d="M12.625 7.71875C12.8125 7.75 13.125 7.8125 13.2812 7.84375C13.5938 7.9375 13.8125 8.28125 13.7188 8.625C13.625 8.9375 13.2812 9.15625 12.9375 9.0625C12.8438 9.03125 12.4062 8.9375 12.2812 8.90625C11.875 8.875 11.5625 8.90625 11.375 9C11.1875 9.09375 11.125 9.1875 11.125 9.25C11.0938 9.375 11.125 9.40625 11.125 9.40625C11.125 9.4375 11.1562 9.46875 11.25 9.53125C11.4375 9.65625 11.7188 9.75 12.1562 9.875H12.1875C12.5625 10 13.0938 10.1562 13.4688 10.4375C13.6562 10.5938 13.875 10.7812 14 11.0625C14.125 11.3438 14.125 11.6562 14.0938 12C13.9688 12.5938 13.5938 13 13.0938 13.1875C12.9375 13.25 12.7812 13.3125 12.625 13.3438V13.5C12.625 13.875 12.3438 14.1562 11.9688 14.1562C11.625 14.1562 11.3438 13.875 11.3438 13.5V13.3125C11.0625 13.25 10.6562 13.125 10.4375 13.0312C10.375 13 10.3125 13 10.2812 12.9688C9.96875 12.875 9.78125 12.5312 9.90625 12.1875C10 11.875 10.3438 11.6875 10.6875 11.7812C10.75 11.8125 10.8125 11.8438 10.875 11.875C11.1875 11.9688 11.5 12.0625 11.6875 12.0938C12.0938 12.1562 12.4062 12.125 12.5938 12.0625C12.7812 11.9688 12.8438 11.875 12.8438 11.7812C12.875 11.6562 12.8438 11.5938 12.8438 11.5625C12.8438 11.5312 12.8125 11.5 12.7188 11.4375C12.5312 11.3125 12.25 11.2188 11.8125 11.0625H11.75C11.375 10.9375 10.9062 10.8125 10.5312 10.5625C10.3438 10.4062 10.125 10.2188 10 9.9375C9.875 9.65625 9.84375 9.34375 9.875 9.03125C10 8.46875 10.4062 8.0625 10.875 7.875C11 7.78125 11.1875 7.75 11.3438 7.6875V7.5C11.3438 7.15625 11.625 6.875 12 6.875C12.3438 6.875 12.625 7.15625 12.625 7.5V7.71875ZM5.5 10.5C5.5 6.9375 8.40625 4 12 4C15.5625 4 18.5 6.9375 18.5 10.5C18.5 14.0938 15.5625 17 12 17C8.40625 17 5.5 14.0938 5.5 10.5ZM12 15.5C14.75 15.5 17 13.2812 17 10.5C17 7.75 14.75 5.5 12 5.5C9.21875 5.5 7 7.75 7 10.5C7 13.2812 9.21875 15.5 12 15.5ZM7.46875 16.5H6C5.71875 16.5 5.5 16.75 5.5 17V18C5.5 18.2812 5.71875 18.5 6 18.5H18C18.25 18.5 18.5 18.2812 18.5 18V17C18.5 16.75 18.25 16.5 18 16.5H16.5C17.0625 16.0938 17.5625 15.5938 18 15C19.0938 15 20 15.9062 20 17V18C20 19.125 19.0938 20 18 20H6C4.875 20 4 19.125 4 18V17C4 15.9062 4.875 15 5.96875 15C6.40625 15.5938 6.90625 16.0938 7.46875 16.5Z" fill="#4D4D4D"/>
</svg>
