<svg width="64" height="64" viewBox="0 0 64 64" fill="none" xmlns="http://www.w3.org/2000/svg">
<rect width="64" height="64" rx="32" fill="#E8EFFD"/>
<path d="M38.625 17.25C40.1875 15.6875 42.75 15.6875 44.3125 17.25L46.75 19.6875C48.3125 21.25 48.3125 23.8125 46.75 25.375L43.75 28.375L35.625 20.25L38.625 17.25ZM42.3125 29.8125L27.75 44.375C27.125 45 26.3125 45.5 25.4375 45.75L17.875 47.9375C17.375 48.125 16.8125 48 16.4375 47.5625C16 47.1875 15.875 46.625 16 46.125L18.25 38.5625C18.5 37.6875 19 36.875 19.625 36.25L34.1875 21.6875L42.3125 29.8125Z" fill="#2C64E3"/>
</svg>
