<svg width="24" height="24" viewBox="0 0 24 24" fill="none" xmlns="http://www.w3.org/2000/svg">
<path d="M9.46875 9.46875C9.75 9.1875 10.2188 9.1875 10.5 9.46875L11.9688 10.9688L13.4688 9.46875C13.75 9.1875 14.2188 9.1875 14.5 9.46875C14.8125 9.78125 14.8125 10.25 14.5 10.5312L13.0312 12L14.5 13.4688C14.8125 13.7812 14.8125 14.25 14.5 14.5312C14.2188 14.8438 13.75 14.8438 13.4688 14.5312L11.9688 13.0625L10.5 14.5312C10.2188 14.8438 9.75 14.8438 9.46875 14.5312C9.15625 14.25 9.15625 13.7812 9.46875 13.4688L10.9375 12L9.46875 10.5312C9.15625 10.25 9.15625 9.78125 9.46875 9.46875ZM20 12C20 16.4375 16.4062 20 12 20C7.5625 20 4 16.4375 4 12C4 7.59375 7.5625 4 12 4C16.4062 4 20 7.59375 20 12ZM12 5.5C8.40625 5.5 5.5 8.4375 5.5 12C5.5 15.5938 8.40625 18.5 12 18.5C15.5625 18.5 18.5 15.5938 18.5 12C18.5 8.4375 15.5625 5.5 12 5.5Z" fill="#FF0000"/>
</svg>
