<svg width="60" height="60" viewBox="0 0 60 60" fill="none" xmlns="http://www.w3.org/2000/svg">
<path d="M47.4219 30C47.4219 31.4062 46.3281 32.5 45 32.5H21.0156L29.2188 40.7812C30.2344 41.7188 30.2344 43.3594 29.2188 44.2969C28.75 44.7656 28.125 45 27.5 45C26.7969 45 26.1719 44.7656 25.7031 44.2969L13.2031 31.7969C12.1875 30.8594 12.1875 29.2188 13.2031 28.2812L25.7031 15.7812C26.6406 14.7656 28.2812 14.7656 29.2188 15.7812C30.2344 16.7188 30.2344 18.3594 29.2188 19.2969L21.0156 27.5H45C46.3281 27.5 47.4219 28.6719 47.4219 30Z" fill="#333333"/>
</svg>
