<svg width="48" height="48" viewBox="0 0 48 48" fill="none" xmlns="http://www.w3.org/2000/svg">
<g clip-path="url(#clip0_316_110)">
<path d="M24 48C37.2548 48 48 37.2548 48 24C48 10.7452 37.2548 0 24 0C10.7452 0 0 10.7452 0 24C0 37.2548 10.7452 48 24 48Z" fill="#4CC764"/>
<path d="M39.971 22.6036C39.971 15.4473 32.8146 9.59998 23.9128 9.59998C15.1855 9.59998 7.94188 15.4473 7.94188 22.6036C7.94188 29.0618 13.6146 34.3854 21.3819 35.4327C21.9055 35.52 22.6037 35.7818 22.7782 36.2182C22.9528 36.6545 22.8655 37.2654 22.8655 37.7018C22.8655 37.7018 22.691 38.8363 22.6037 39.0982C22.5164 39.5345 22.2546 40.6691 24.0001 39.9709C25.7455 39.2727 33.251 34.56 36.5673 30.6327C38.9237 28.0145 39.971 25.4836 39.971 22.6036Z" fill="white"/>
<path d="M34.6476 26.7054C34.8221 26.7054 34.9967 26.5309 34.9967 26.3563V25.3091C34.9967 25.1345 34.8221 24.96 34.6476 24.96H31.593V23.7382H34.6476C34.8221 23.7382 34.9967 23.5636 34.9967 23.3891V22.2545C34.9967 22.08 34.8221 21.9054 34.6476 21.9054H31.593V20.6836H34.6476C34.8221 20.6836 34.9967 20.5091 34.9967 20.3345V19.2C34.9967 19.0254 34.8221 18.8509 34.6476 18.8509H30.1094C29.9349 18.8509 29.7603 19.0254 29.7603 19.2V26.1818C29.7603 26.3563 29.9349 26.5309 30.1094 26.5309H34.6476V26.7054Z" fill="#4CC764"/>
<path d="M18.0657 26.7055C18.2403 26.7055 18.4148 26.5309 18.4148 26.3564V25.3091C18.4148 25.1345 18.2403 24.96 18.0657 24.96H15.0112V19.3745C15.0112 19.2 14.8366 19.0255 14.6621 19.0255H13.5275C13.353 19.0255 13.1784 19.2 13.1784 19.3745V26.3564C13.1784 26.5309 13.353 26.7055 13.5275 26.7055H18.0657Z" fill="#4CC764"/>
<path d="M20.7712 19.1127H19.6366C19.4621 19.1127 19.2875 19.2873 19.2875 19.4618V26.4436C19.2875 26.6182 19.4621 26.7927 19.6366 26.7927H20.7712C20.9457 26.7927 21.1203 26.6182 21.1203 26.4436V19.4618C21.033 19.2873 20.9457 19.1127 20.7712 19.1127Z" fill="#4CC764"/>
<path d="M28.4512 19.1127H27.3167C27.1421 19.1127 26.9676 19.2873 26.9676 19.4618V23.5636L23.7385 19.2H22.6039C22.4294 19.2 22.2548 19.3746 22.2548 19.5491V26.5309C22.2548 26.7055 22.4294 26.88 22.6039 26.88H23.5639C23.7385 26.88 23.913 26.7055 23.913 26.5309V22.3418L27.1421 26.7055L27.2294 26.7927H27.3167H28.4512C28.6258 26.7927 28.8003 26.6182 28.8003 26.4436V19.4618C28.8003 19.2873 28.6258 19.1127 28.4512 19.1127Z" fill="#4CC764"/>
</g>
<defs>
<clipPath id="clip0_316_110">
<rect width="48" height="48" fill="white"/>
</clipPath>
</defs>
</svg>
