<svg width="60" height="60" viewBox="0 0 60 60" fill="none" xmlns="http://www.w3.org/2000/svg">
<path d="M28.3955 0H31.5672L31.6791 0.11194H32.9478L33.0597 0.223881L35.2985 0.447761C37.5373 0.858209 39.5896 1.45522 41.4179 2.23881C45.7836 4.10448 49.4403 6.71642 52.3507 10C54.8134 12.7239 56.7537 15.9701 58.1716 19.7388L58.806 21.6418L59.6642 25.5597L59.7761 27.2388L59.8881 27.3507L60 30.8582C59.8134 30.9701 59.7761 31.194 59.8881 31.6045L60 31.7164V33.4701C55.5224 34.6269 51.306 36.0821 47.3507 37.7985H46.6045L44.8507 36.7537L45.3731 35.9701V35.4478L45.1493 35.0746L44.8134 34.9254L45.0373 34.1791L44.5522 33.5821L43.806 33.3582L43.209 33.6194C43.1343 33.9552 43.209 34.1418 43.3582 34.2164C43.7313 34.0672 43.8806 34.1418 43.8433 34.3657C43.6567 34.4776 43.5821 34.6642 43.6194 35L43.9925 35.4851L44.2537 35.6343L43.9925 36.0075L43.3955 36.2313L43.2836 36.6045L44.9254 37.9104L46.0821 38.5448L47.4627 38.6567L48.6194 38.3209L53.2836 36.4179L59.8881 34.403V36.2687L59.6269 36.306L59.1418 36.5672L58.097 40.2612L55.9701 44.8134C54.403 47.5373 52.5373 49.8881 50.2985 51.9403C47.5 54.5896 44.1045 56.6791 40.1493 58.1716L37.8358 58.9179L34.3284 59.6642L32.5373 59.7761L32.4254 59.8881H30.8209L30.709 60H28.9179L28.806 59.8881L26.1567 59.7761L26.0448 59.6642L23.6194 59.3284C21.1567 58.7687 18.8806 57.9851 16.8657 57.0149C13.209 55.2239 10.0746 52.8731 7.5 49.9627C5.03731 47.2761 3.09701 44.0672 1.6791 40.3358L0.634328 36.3433L0.223881 33.9179L0.11194 31.6791L0 31.5672V28.3955L0.11194 28.2836V27.0149L0.223881 26.903L0.335821 25.2985L0.858209 22.6493L1.82836 19.5896L2.87313 17.0522C4.73881 13.2463 7.20149 10 10.2239 7.38806C12.4627 5.37313 15.0746 3.73134 18.0597 2.42537L19.6642 1.79104L23.097 0.746269L26.0448 0.223881L28.2836 0.11194L28.3955 0ZM29.7388 3.58209L29.403 3.69403C29.1045 3.76866 29.0299 4.02985 29.0672 4.55224L30.1119 5.29851L30 5.52239L29.3657 5.41045C29.2164 5.18657 29.0672 5.26119 28.9552 5.63433L29.5896 5.97015C30 6.04478 30.2985 5.97015 30.4478 5.74627C30.597 5.59701 30.6343 5.37313 30.5597 5L29.5149 4.36567L29.7388 4.02985L30.3731 4.14179L30.4851 3.91791C30.3358 3.6194 30.0746 3.50746 29.7388 3.58209ZM31.9403 3.69403C31.791 4.10448 31.9776 4.25373 32.4627 4.10448V5.07463L32.3507 5.18657V6.04478H32.7612L32.8731 5.41045V4.25373H33.6194V3.91791L33.3955 3.80597C32.7985 3.8806 32.3134 3.84328 31.9403 3.69403ZM26.4552 3.80597L26.0448 4.02985L25.6343 4.77612L25.8582 5.74627L26.6045 6.15672L27.2388 6.04478L27.6493 5.52239C27.7239 4.96269 27.6493 4.55224 27.4254 4.25373C27.2388 3.8806 26.9403 3.73134 26.4552 3.80597ZM35.1119 4.14179L34.7015 6.23134L34.9254 6.34328L35.8955 6.56716C36.194 6.64179 36.2313 6.49254 36.1194 6.15672L35.2612 6.04478L35.3731 5.52239L36.1194 5.63433L36.2313 5.22388L35.4851 5.11194L35.709 4.58955L36.4552 4.81343L36.5672 4.58955L36.4552 4.36567L35.1119 4.14179ZM23.4701 4.32836L23.5821 5.29851L22.8358 5.41045L22.7239 4.85075C22.6493 4.62687 22.4627 4.55224 22.2015 4.62687L22.8358 6.86567L23.1716 6.75373L22.9478 5.78358L23.694 5.5597L24.1045 6.52985L24.4403 6.41791L23.9179 4.62687C23.9925 4.29104 23.8433 4.1791 23.4701 4.32836ZM38.0597 4.85075L37.4254 6.97761L38.694 7.31343L38.806 6.97761L37.9478 6.75373L38.4701 5.07463L38.0597 4.85075ZM18.8433 5.93284L18.5075 6.04478L19.0299 7.42537L19.1418 7.53731L17.7612 6.49254L17.3507 6.60448C17.5746 7.38806 17.8731 8.0597 18.3209 8.6194L18.6567 8.50746L18.0224 7.35075L18.1343 7.12687L19.5149 8.17164L19.8507 7.94776L18.8433 5.93284ZM42.9478 6.75373L41.2687 8.43284L41.6045 8.54478L42.1269 8.13433L42.6493 8.54478L42.5373 9.06716L42.9478 9.29104L43.3582 6.97761L42.9478 6.75373ZM15.3358 7.72388L14.9254 8.02239L15.4478 10.1493L15.8582 10.0373L15.7463 9.51493L16.2687 9.10448L16.903 9.4403L17.0149 9.21642L15.3358 7.72388ZM45.2612 8.13433L43.9925 9.92537L45.1493 10.6716L45.2612 10.2612L44.6269 9.92537L45.597 8.43284L45.2612 8.13433ZM13.3209 9.10448L12.9851 9.21642V9.55224L13.6194 10.709L13.7313 10.8209L12.7612 10.0746C12.5373 9.66418 12.3507 9.66418 12.1269 10.0746L12.7612 11.3433V11.4552L11.7164 10.4851H11.4925L11.2687 10.8209L12.9478 12.2015L13.2836 11.9776L12.7612 10.709V10.4851L13.806 11.3433C14.1045 11.4179 14.2164 11.3433 14.2164 11.1194L13.3209 9.10448ZM33.7313 9.85075L32.8731 10.2612C32.3881 10.6716 32.0149 11.2687 31.8284 12.0522L31.306 12.5746L28.8806 13.6194C28.3209 14.1045 27.9104 14.7388 27.6119 15.5224L27.2015 17.5373L26.791 18.3955L26.0448 19.0299L25.1866 20.1866L24.9627 21.1567C24.4776 21.9403 24.1045 22.7985 23.9179 23.806L24.4403 24.0299L25.0746 22.1269L25.4851 21.3806L25.709 20.4104L26.0448 19.8881L26.6791 19.3657C27.0896 19.0299 27.4254 18.5821 27.6493 18.097L28.0597 16.194L28.694 14.7015L29.3284 14.0672L31.7537 13.0224L32.5 12.1642L32.8358 11.194C33.1343 10.7836 33.5448 10.4851 34.1045 10.3358L34.5149 10.4478L35.1493 11.4925L35.6716 11.8284C36.3806 11.6791 36.8657 11.8284 37.1642 12.2388L37.6866 12.1269L38.097 12.2388L38.3209 12.9851L38.9552 13.3209L38.7313 13.4328C38.0224 13.9179 37.5746 14.6269 37.3507 15.5597V16.194L37.6866 16.7164L37.7985 17.6866L38.4328 18.5448V19.1791C38.097 19.7388 37.7985 20.4478 37.5746 21.306V22.3507L36.6045 23.5075C36.7537 24.0672 36.6791 24.4776 36.3806 24.6642C36.306 25.0746 36.3806 25.4104 36.6045 25.6343L36.4925 26.6045L37.1269 26.4925V25.3731L36.903 25.0373L37.1269 24.5149C37.0522 24.0298 37.0896 23.6567 37.2388 23.4701L37.5746 23.2463L37.9851 22.8358L38.209 21.0448L39.0672 19.0299L38.9552 18.2836L38.3209 17.3134C38.3955 16.7537 38.2836 16.3433 37.9851 16.1567V15.2985L38.3955 14.5522L39.2537 13.806C39.5522 13.6567 39.6642 13.3955 39.6642 12.9478C39.5149 12.6119 39.2164 12.4627 38.694 12.5373L38.5821 12.1269L38.0597 11.6045H37.0896C36.8657 11.2687 36.4552 11.1567 35.8209 11.2687L35.1866 10.5224L34.4403 9.77612C34.4776 9.85075 33.7313 9.85075 33.7313 9.85075ZM47.6866 9.85075L46.194 11.5299L47.2388 12.3881L47.3507 12.0522L46.7164 11.5299L47.8731 10.2612L47.6866 9.85075ZM49.8134 11.7537L48.209 13.3582L48.5448 13.5821L50.0373 12.2015L49.8134 11.7537ZM10.1493 11.8284L9.81343 12.1642L11.4179 13.6567L11.6418 13.3209L10.1493 11.8284ZM8.47015 13.6567L8.0597 14.0672L9.21642 15.8582C9.14179 16.0075 9.21642 16.0448 9.4403 15.9701L9.55224 15.7463L9.32836 15.3358C9.32836 14.9254 9.47761 14.7015 9.73881 14.7015L10.2612 14.9254L10.4851 14.5149L8.47015 13.6567ZM51.4925 13.6567L49.5896 14.403C49.291 14.5522 49.3284 14.7015 49.7015 14.8134L50.2239 14.5896L50.6343 15.2239L50.2985 15.6343L50.6343 15.9701L51.791 14.1791L51.6791 13.8433L51.4925 13.6567ZM6.97761 15.5597L6.00746 17.0522L6.34328 17.1642L6.6791 16.7537L8.28358 17.6119L8.39552 17.3881L6.90298 16.3433L7.23881 15.709L6.97761 15.5597ZM53.209 15.7463L51.4179 17.0149L51.6418 17.2388L52.5 16.8284L52.8358 16.6045L52.0896 17.9851L52.4254 18.3955L54.1045 17.2388L53.9925 16.8284L53.1343 17.3507L52.7239 17.6866L53.4701 16.306L53.209 15.7463ZM54.4776 18.9179L53.7313 19.2537C53.3209 19.403 53.1716 19.8134 53.3209 20.5224L53.8433 20.9328H54.0672L54.1791 20.709L54.0672 20.597C53.7687 20.5224 53.694 20.2612 53.7313 19.8507L54.2537 19.4403C54.7388 19.3657 55.0373 19.4776 55.1119 19.7761C54.9627 20.1866 55.1119 20.3358 55.5224 20.1866L55.4104 19.4403L54.7761 18.9179H54.4776ZM11.0075 19.2537L10.7836 19.4776L10.8955 19.7015C10.8955 20.6343 10.6343 21.306 10.1493 21.7164C9.1791 22.7612 8.02239 23.694 6.75373 24.4776L6.34328 24.9627L7.31343 25.3731C7.64925 25.4478 7.91045 25.3731 8.0597 25.1493L11.1194 22.7239L11.9776 21.6791L12.3881 20.5224L12.2761 19.7761C12.0522 19.3657 11.6418 19.1791 11.0075 19.2537ZM56.0448 21.6791L54.2537 22.3134L54.6642 23.4701C54.5896 23.6194 54.7015 23.6567 55 23.5821L54.7761 22.6119L55.2985 22.3881L55.5224 23.1343L55.8582 23.0224L55.6343 22.3881L56.1567 22.1642L56.3806 22.9104L56.791 22.7985L56.3806 21.8284C56.4552 21.6045 56.3433 21.5299 56.0448 21.6791ZM14.5896 22.3134L14.0672 22.7239L14.1791 23.9925L14.403 24.6269L14.8134 24.8507C15.2985 24.9254 15.6343 24.8134 15.7836 24.5149V23.7687L15.5597 22.7239C15.4851 22.3881 15.1493 22.2388 14.5896 22.3134ZM33.3209 23.0597L31.0075 24.0299C30.709 24.1045 30.6343 24.0299 30.6716 23.806L30.1493 23.2836C30 23.1343 29.8881 23.1716 29.8134 23.3955L30.0373 24.3657L27.6119 25.3731L26.8657 26.0075L26.9776 26.1194C27.9104 25.4851 28.9552 25.0373 30.1493 24.7388L30.3731 25.1493L29.6269 25.5597C29.403 25.4851 29.3284 25.5597 29.403 25.7836L30.1493 26.306L32.0522 25.4478L31.306 24.8134L30.8955 24.9254L30.7836 24.403L33.097 23.6567L33.6194 23.1343L33.3209 23.0597ZM11.5299 23.2836L11.0075 23.5075L10.6716 23.9179L12.4627 26.791L12.9851 27.0149C13.3955 27.0149 13.694 26.8657 13.8433 26.6045V26.1194L12.2388 23.806C12.1269 23.4328 11.8657 23.2836 11.5299 23.2836ZM20.4104 23.5821L20.1866 23.806L20.2985 24.2164H19.8881L18.3955 24.8507L12.2761 27.7985L10.1493 28.5448L7.83582 28.9925L7.94776 28.3582L7.53731 27.9478L6.90298 28.0597L6.49254 28.5821C6.08209 30.2612 5.44776 31.8284 4.58955 33.2463L4.70149 33.7687L5.11194 33.9925L5.74627 33.8806L6.49254 32.6119L7.64925 29.6642L7.98507 29.8881H9.02985L10.709 29.4776L11.0448 29.5896L9.66418 31.903L10 32.5373L10.7463 32.9478L12.0149 30.709C11.9403 30.0746 11.6791 29.6642 11.1567 29.4403L14.1045 28.3955L21.2687 24.9627L24.6642 26.9776L24.8881 26.8657L24.7761 26.4552L24.1418 25.8209L20.4104 23.5821ZM9.29104 25.1866L8.95522 25.5224L9.81343 27.0149L10.1493 27.1269H11.194V26.791L10.4478 25.5224C10.2612 25.2239 9.88806 25.1119 9.29104 25.1866ZM32.0522 26.1194C31.3433 26.2687 30.7836 26.4925 30.3731 26.8657H29.403C29.1791 26.9403 29.1045 27.2015 29.1791 27.6119L29.1045 27.5H28.694L27.7239 27.9104C27.8731 27.5 27.7985 27.2015 27.5 27.0522L26.9776 27.1642C26.6418 27.3881 26.5299 27.7985 26.6418 28.4328L26.2313 28.5448C26.306 27.8358 26.2687 27.2761 26.1194 26.8657L25.597 26.9776L25.1866 27.5C25.4104 27.7239 25.4478 28.1343 25.2985 28.7687L25.4104 28.9925L24.3657 29.403L23.9552 29.9254L24.3657 30.1493H24.8881L25.2985 29.8134C25.4478 29.7388 25.4851 29.8134 25.4104 30.0373C25.6343 30.3358 25.9328 30.4478 26.3806 30.4478C26.1194 31.2313 25.7463 31.903 25.1866 32.4627V32.7985L25.597 33.0224L26.0075 32.9104C26.6418 32.2761 27.0896 31.4179 27.3881 30.3731L28.1343 30.2612L28.4701 29.8507C28.3209 29.5522 28.0597 29.5149 27.6119 29.6269L27.7239 28.7687L29.403 28.0224L29.7388 29.0672L30.1493 29.291L30.4851 29.1791L30.709 29.403L30.597 29.7388L30.9328 30.3731L28.0597 31.9776C27.8358 31.903 27.7612 31.9776 27.8358 32.2015L28.3582 32.4254H28.8806L33.0224 30.1866C34.4403 29.5522 36.0075 29.0672 37.7985 28.694L37.9104 28.5821L37.2761 28.1716L33.5821 29.2164L33.806 28.8806L33.694 28.4701L33.209 28.1343L33.3209 27.9104L33.209 26.6418C33.0597 26.2313 32.6866 26.0448 32.0522 26.1194ZM17.5746 27.9104L17.1642 28.1343C16.9403 28.0597 16.8657 28.1716 16.9403 28.4701L17.9104 28.9925C18.5448 29.0672 18.9552 28.9179 19.1791 28.5821L18.4328 27.9478H17.5746V27.9104ZM49.0672 28.5448V30.3358L48.7313 31.3806C48.8806 31.6791 49.1791 31.7537 49.7015 31.7164L49.9254 30.9701L50.5597 30.7463L50.6716 31.2687L51.0821 31.4925L50.9701 31.8284V32.1642L51.6045 32.9104L49.9254 34.291L50.4478 34.9254H50.7836L51.8284 34.0672L52.0522 33.9552L51.9403 34.3657L51.4179 34.5896C51.3433 35 51.4552 35.2985 51.7537 35.4478L52.5 35.3358L52.9104 34.8134L53.1343 33.7687L53.0224 33.0224L57.4627 30.1493L57.0522 29.5149H56.6418L55.8955 29.9254L52.7239 32.0522C52.5 32.3507 52.3507 32.3507 52.2015 32.0522L52.2388 31.7164L52.1269 31.0821C51.8284 30.7463 51.4179 30.5597 50.8582 30.5597L51.903 29.8134C52.0522 29.8881 52.0895 29.8134 52.0149 29.5896L51.3806 29.0672L50.1119 29.9254L50 28.9552C49.8881 28.6194 49.5896 28.4701 49.0672 28.5448ZM20.9328 28.7687L20.709 28.8806L20.3731 29.2164C20.2985 29.6269 20.1493 30 19.9627 30.2612L19.3284 30.8955C18.694 31.306 17.9478 31.6045 17.0896 31.7537C15.8955 31.903 15 31.7537 14.4403 31.3433C13.8806 31.0448 13.5448 30.597 13.4701 29.9627L12.9478 29.4403C12.4627 29.3657 12.1269 29.4403 11.9776 29.6642L11.9403 30.0373C12.0896 30.6716 12.3134 31.194 12.6866 31.6418L14.1791 32.6119L15.5597 33.0224L14.9254 34.5149C14.291 35.4851 13.5448 36.3806 12.6866 37.1642L12.5746 37.6866L12.9851 37.9104L13.6194 37.7985L14.5896 36.8284C14.7388 36.7537 14.7761 36.8284 14.7015 37.0522L15.9701 37.6866L17.3507 38.209L17.2388 38.4328C16.2687 39.403 15.1866 40.2985 14.0672 41.0821C13.6567 41.2313 13.4701 41.4925 13.5448 41.9403C13.9552 42.0149 14.3284 41.9403 14.5896 41.7164C15.9328 40.7463 17.2015 39.6269 18.3955 38.4328L23.2463 39.9254L26.1194 40.4478L27.6119 40.5597L27.7239 40.6716H28.9925L29.1045 40.7836H33.0224L33.1343 40.6716H34.291L34.403 40.5597L36.0821 40.4478L38.9552 39.9254L42.2388 38.9552L42.4627 38.5448C42.4627 38.1343 42.3134 37.8358 42.0522 37.6866H41.306L40.5597 38.0224L38.4328 38.5448L35.5597 39.0672L33.6567 39.1791L33.5448 39.291H31.4179L31.306 39.403L28.0224 39.291L27.9104 39.1791L25.597 38.9552L22.6493 38.3209L19.3657 37.3507L20.3358 35.9701L20.7463 35.6343L21.0821 35.1119L20.9701 34.7761L20.7463 34.4403L18.7313 34.1045L17.2388 33.4701C16.9403 33.3955 16.8657 33.1716 16.903 32.8358C18.5075 32.6866 19.8134 32.2015 20.8209 31.3433C21.306 30.9328 21.6791 30.3358 21.8657 29.5522L21.7537 29.1418C21.6418 28.9179 21.3806 28.7687 20.9328 28.7687ZM45.8955 28.8806L45.5597 29.2164L46.306 30.2612C46.2313 30.597 46.2687 30.8582 46.4179 31.0075L45.7836 31.2313L45.5597 31.5672C46.1194 31.6418 46.5298 31.5672 46.7164 31.3433L46.8284 31.6791V32.9478L46.7164 33.0597L46.6045 34.9627L47.1269 35.2985L47.5373 35.1866L47.6493 34.5522V33.694L47.8731 33.5821L47.9851 33.9179L47.8731 36.1567C47.9478 36.4552 48.209 36.5299 48.6194 36.4925L48.8433 36.1567L48.9552 35.6343C49.1045 34.5149 48.9552 33.694 48.5448 33.209C48.3955 32.8731 48.1716 32.6866 47.7985 32.6866V31.4179L47.5746 31.0075L48.4328 30.597L48.5448 30.2612C48.0597 30.1866 47.6493 30.2612 47.3881 30.4851L46.7537 29.3284C46.6791 28.9179 46.3806 28.806 45.8955 28.8806ZM14.9254 28.9925L14.8134 29.1045C14.5149 29.0299 14.4776 29.1791 14.5896 29.5149L15.7463 30.2612C16.1567 30.3358 16.4179 30.2612 16.4925 30.0373L16.3806 29.6269L15.4104 28.9925H14.9254ZM43.806 29.6269L40.2239 30.597L34.5149 32.3881L34.2537 32.4627C34.8134 32.1642 35.1493 31.6791 35.2239 30.9701L34.8881 30.6343H33.9552L32.2761 31.1567L32.0522 31.4925L31.8284 31.3806L31.4925 31.4925L32.0149 32.6493L32.9851 33.2836L34.4776 33.1716L40.9328 31.0448L44.4403 30.1866C44.5896 30.1119 44.6269 29.9254 44.5522 29.6642C44.403 29.5896 44.1418 29.5522 43.806 29.6269ZM43.4701 30.8955L43.0597 31.2313V31.5672L43.9179 32.8358C44.403 32.9104 44.7015 32.7985 44.7761 32.5L44.1418 31.2313C44.0299 30.9328 43.806 30.8209 43.4701 30.8955ZM23.2836 33.9552L22.9478 34.0672L22.7239 34.403C22.7985 34.6269 23.0224 34.7388 23.3582 34.7388L23.2463 34.8507V35.8955L23.0224 36.4179L22.1642 36.0821L22.2761 36.4925L22.7985 36.8284L23.209 36.9403H24.3657L24.4776 36.8284C24.403 36.4925 24.1418 36.3433 23.7313 36.4179L23.9552 34.8134L24.3657 34.4776H24.4776V34.0672L24.3284 33.9552L23.9925 34.0672C23.5821 34.2164 23.3582 34.1791 23.2836 33.9552ZM27.5 34.1791L27.2761 34.291L26.8657 34.8134L26.9776 35.4478L27.7239 36.4179C27.7985 36.7537 27.7612 37.0149 27.6119 37.1642H27.3881V36.7537C27.0522 36.6791 26.8284 36.8284 26.7537 37.1642L26.8657 37.5746L27.2015 37.6866L27.9478 37.3507C28.2463 37.1269 28.3955 36.791 28.4701 36.306L28.694 37.2761L29.5522 37.6119C30.0373 37.6866 30.4104 37.5746 30.597 37.2761C30.8209 37.6866 31.3433 37.8731 32.2015 37.7985C32.4254 37.7985 32.5 37.6493 32.4254 37.3881L32.3134 37.1642H31.4552C31.1567 37.0149 31.0448 36.791 31.0448 36.4179C31.3433 36.194 31.7537 36.1194 32.3134 36.194L32.4254 35.8582C31.8657 35.7836 31.4179 35.8582 31.0448 36.0821L31.3806 35.1119L32.1269 35L32.3507 34.5896L30.8955 34.7015C30.7463 35 30.597 35 30.4851 34.7015L28.806 35.0373L28.4701 35.3731L28.5821 36.0075L28.2463 36.1194L28.1343 35.709L27.6119 35L27.5 34.7015L27.9104 35.3358C28.209 35.4104 28.3582 35.3358 28.4328 35.1119L28.3582 34.5896C28.209 34.2164 27.9104 34.1045 27.5 34.1791ZM35 34.1791L34.7761 34.291L34.3657 34.8134L34.4776 35.3358L34.8881 35.5597C35.2239 35.6343 35.4851 35.5597 35.6343 35.3358L35.7463 35.6716V37.0522L35.6343 37.1642L35.2985 37.0522L35.4104 36.7164V36.3806L35.1866 36.4925C34.8507 36.6418 34.7015 36.9403 34.7761 37.4627L35.1119 37.5746H35.4478L35.9701 37.2388L36.3806 36.2687V35.6343L36.0448 34.2537C35.709 34.2164 35.4851 34.3284 35.4478 34.7015C35.5224 35 35.4851 35.0746 35.3358 35.0373L34.9254 34.6269L35.0373 34.403V34.1791H35ZM38.6194 35.3358L38.3955 35.4478C38.1716 35.597 38.097 35.8209 38.1716 36.194L38.0597 36.0821L37.5373 35.5597L36.903 35.6716L36.4925 36.306L36.6045 36.8284C36.7537 37.1642 37.1642 37.3134 37.8731 37.2388C38.1716 37.1642 38.2463 36.903 38.209 36.3806L38.6194 36.6045H39.4776L39.5896 36.4925L40.3358 36.6045L40 35.8582C39.9254 35.5597 39.7015 35.4851 39.3657 35.5224C39.0672 35.6716 39.0299 35.8955 39.1418 36.2687L38.806 36.1567L38.9179 35.4104L38.6194 35.3358ZM40.8209 36.0821L41.0448 36.4179H41.1567L40.8209 36.0821ZM7.20149 39.7761L6.97761 40L7.08955 40.2239L6.75373 40.3358L6.64179 40L6.23134 40.3358V40.5597C6.00746 40.4851 5.93284 40.5597 6.00746 40.7836L5.37313 40.8955L5.70896 41.4179C5.78358 41.5672 5.74627 41.6045 5.59701 41.5299L5.26119 41.194L4.92537 40.9701V41.3806L5.78358 42.2388L6.1194 43.097V43.209H6.52985L6.19403 42.5746L6.82836 42.4627L6.49254 41.8284V41.6045C6.56716 41.903 6.75373 41.9776 7.01493 41.9403L6.90298 42.4627C7.20149 42.5373 7.27612 42.5 7.23881 42.3507L7.57463 42.4627L7.91045 42.2388L7.79851 41.7164L8.13433 41.6045L8.35821 41.7164V41.4925L7.20149 39.7761ZM22.4254 41.4552L23.4701 43.694L23.694 44.7388L24.1045 45.3731L25.4851 46.2313L27.6119 46.8657L28.1343 47.2015L29.291 48.9925L29.6269 49.9627V51.2313L29.8507 51.5672L30.597 52.0896L31.0075 51.9776L32.1642 52.5L32.5746 52.3881L32.6866 52.1642C32.7612 51.6045 32.6493 51.2313 32.3507 51.1194L32.6866 50.709V49.7388L32.2761 48.1343V46.4552L32.3881 46.3433V45.2985L32.4627 45.1493V44.1045L32.7985 43.0597L33.3209 42.4254L32.3507 42.5373L31.9403 43.9179C32.0149 44.5522 31.9403 45.0746 31.7164 45.5224V48.4701L32.1269 49.9627V50.4851L31.7164 50.8209V51.2313L32.1269 51.8657L31.2687 51.4552H30.6343L30.1119 50.9328V49.7761L29.7015 48.5075L28.9552 47.4627L27.9851 46.4925L26.194 45.9701L24.8134 45.2239L24.1791 44.5896L23.9552 43.5448L23.097 41.8657L22.4254 41.4552ZM52.5746 41.5672L51.8284 42.5373L52.4627 42.9478C52.6119 42.8731 52.6493 42.9478 52.5746 43.1716L52.6866 43.2836L51.8284 42.6493L51.0821 43.5075L52.2388 44.2537L52.4627 43.7313C52.5373 43.5075 52.7239 43.4328 52.9851 43.5075L52.5746 44.3657L52.9851 44.5896L52.8731 44.9254L53.097 45.1493L54.5896 43.1343C54.7388 42.9851 54.7388 42.8731 54.5896 42.7985C54.3657 42.7239 54.291 42.7985 54.3657 43.0224L53.7313 42.6866L53.5075 42.7985L53.6194 42.4627L52.5746 41.5672ZM10.3731 44.2164L9.96269 44.5522L9.73881 44.4403L9.32836 44.9627C9.02985 44.8881 8.95522 44.9627 8.99254 45.1866L8.8806 45.5224V45.6343H8.13433V45.8582C8.28358 46.0075 8.50746 46.0821 8.8806 46.0821L8.76866 46.306L9.10448 46.4179C9.25373 46.3433 9.29105 46.194 9.21642 46.0075L10.2612 45.3731L11.2313 46.5298H11.4552L11.1194 46.1194L11.6418 46.4552L11.7537 46.3433L11.3433 45.8209L11.4552 45.597C11.3806 45.3731 11.306 45.3358 11.2313 45.4851C11.0075 45.5597 10.9328 45.5224 11.0075 45.3731L10.6716 44.9627L10.4478 45.1866L10.8582 45.709L10.3358 45.2985L10.4478 45.0746C10.3731 44.8507 10.2985 44.8134 10.2239 44.9627H10L10.4104 44.6269L10.3731 44.2164ZM10.1493 45.4851C9.85075 45.5597 9.77612 45.7463 9.81343 46.0075L9.29104 45.7836L10.1493 47.0522L10.5597 47.2761L10.4478 46.9403L11.0821 46.5298L10.8582 46.194L10.1493 45.4851ZM48.8806 45.8955L48.9925 46.6418L49.403 46.5298V46.9403L49.1791 46.8284L49.0672 47.0522C49.2164 47.1269 49.2164 47.2015 49.0672 47.2761C49.0672 46.9403 48.9925 46.6791 48.8433 46.5298C48.6194 46.4552 48.5448 46.5672 48.6194 46.8657H48.5075C48.6567 46.4552 48.5448 46.306 48.1716 46.4552L48.2836 47.2015L48.5075 47.3134C48.7313 47.2388 48.806 47.3507 48.7313 47.6493L49.0672 47.7612L49.1791 47.5373L49.5149 47.3134L49.403 47.5373L49.6269 47.8731L49.403 47.6493L49.0672 47.8731L49.5896 48.2836L49.8134 48.0597V48.4701L50.1493 48.5821C50.2985 47.8731 50.1119 47.4627 49.6269 47.3134L49.7388 46.9776L50.2612 46.5672L49.9254 46.3433H49.7015L49.4776 45.9328L49.2537 46.0448L48.8806 45.8955ZM9.40298 46.1194L8.76866 46.6418L9.81343 47.6866L10.2239 47.3507L9.40298 46.1194ZM50.2239 46.6418L50 46.9776L50.2239 47.2015L49.8881 46.9776L49.6642 47.3134L50.6343 48.0597L50.7463 47.9478L50.4104 47.6119C50.3358 47.3881 50.4104 47.3134 50.6343 47.3881L50.7463 47.2761L50.2239 46.6418ZM48.1343 46.8657L47.7985 47.2015C47.5746 47.1269 47.5 47.2015 47.5746 47.4254H47.3881V47.6493L47.7985 47.7612L48.7687 48.806V49.0298C48.9179 49.2537 49.0672 49.2164 49.1791 48.9179C49.1045 48.694 49.1791 48.6194 49.403 48.694C49.5522 49.0299 49.7015 49.1045 49.8134 48.9179L48.1343 46.8657ZM13.9552 48.1343L13.6194 48.6567L13.9552 48.7687L14.0672 48.4328L13.9552 48.1343ZM13.209 48.5448V48.9552L12.9851 49.0672C12.6866 49.2164 12.6866 49.3657 12.9851 49.4776C12.8358 49.7015 12.5746 49.7761 12.1269 49.7015L12.2388 50.1119L12.5746 50C12.5 50.2985 12.5746 50.5224 12.7985 50.7463L14.1791 51.7164L14.291 51.3806L13.8806 51.1567L12.9104 50.2985L12.7985 49.9627L13.4328 49.4403L13.3209 49.2164L13.6567 48.9925L13.7687 48.7687C13.694 48.5821 13.5075 48.4701 13.209 48.5448ZM14.0672 48.7687C13.7687 48.9179 13.7687 49.0672 14.0672 49.1791L13.209 49.9254C12.9104 49.8507 12.8731 49.9627 12.9851 50.2612C13.3955 50.1866 13.7313 50 13.9552 49.7388L14.0672 49.8507L13.5448 50.3731L13.4328 50.2612C13.209 50.1866 13.1343 50.2985 13.209 50.597L13.6194 50.709L14.4776 49.8507C14.1418 49.6269 14.1045 49.4776 14.3657 49.3284L14.5896 49.6642L14.7015 50.2985L14.291 50.1866C13.9925 50.3358 13.9925 50.4851 14.291 50.597L14.1791 50.8209L13.9552 50.709L13.7313 51.0448L14.0672 51.1567L14.1791 51.2687L14.5896 50.8582L14.8134 51.0821L14.9254 50.8582L14.8134 50.5224C15.1493 50.6716 15.2985 50.597 15.2239 50.2985L15 50.0746L14.7761 49.7388L15.4104 50.1493L15.6343 50.0373L15.2985 49.6269C15.4478 49.4776 15.4478 49.3657 15.2985 49.291L14.9627 49.403L14.6269 49.291C14.7761 48.806 14.6642 48.6194 14.291 48.7687V48.9925L14.0672 48.7687ZM45.4851 49.403L45.0746 49.7388L44.8507 49.6269C44.7015 49.4776 44.5896 49.5149 44.5149 49.7388L44.6269 50.0746C44.403 50.4104 44.0299 50.5224 43.4701 50.4104L43.3582 51.0448L43.5821 51.3806C43.7313 51.4552 43.7687 51.3806 43.694 51.1567L44.1045 51.0448L44.3284 50.5224V50.7463C44.403 50.8955 44.5149 50.8955 44.6642 50.7463L45.709 52.2388L46.6791 51.6045L46.2687 50.7463L45.5224 51.2687H45.2985L45.9328 50.7463L45.597 50.2239L45.709 50L45.4851 49.403ZM44.3284 50.8582L43.694 51.3806L44.7388 52.8731L44.9627 52.4627C45.0373 52.2388 45.1493 52.2015 45.2985 52.3507C45.4478 52.4254 45.4851 52.3134 45.4104 52.0149L45 51.791C44.7761 51.8657 44.7388 51.9776 44.8881 52.1269C44.9627 52.2761 44.9254 52.3134 44.7761 52.2388L44.5522 52.1269L44.9627 51.7164L44.5522 51.0821C44.5896 50.8582 44.5149 50.8209 44.3284 50.8582ZM18.9179 51.7164C18.6194 52.0149 18.2463 52.1269 17.7612 52.1269L17.5373 52.5373H17.8731L19.2537 53.2836C19.4776 53.209 19.5149 53.3209 19.3657 53.6194H19.7015C19.7761 53.1343 19.7015 52.7239 19.4776 52.4627C19.1791 52.3881 19.1045 52.5 19.1418 52.7985L19.2537 52.9104L18.2836 52.5L19.0299 52.1642L18.9179 51.7164ZM39.8881 52.3507C39.6642 52.4254 39.5896 52.6866 39.6642 53.097L39.5522 52.9851L39.1418 53.097L39.0299 52.7612L38.694 52.9851L38.9179 53.3209L38.5075 53.5448C38.4328 53.8433 38.5821 53.8806 38.9179 53.7687L39.2537 54.7388V55.4851H39.5896C39.7388 54.9254 39.6642 54.5149 39.3657 54.2164L39.5896 54.1045L39.9254 54.8507C40 55.0746 39.9254 55.1493 39.7015 55.0746L39.9254 55.4104L40.2612 55.2985V54.7761L39.8507 53.7313L39.4403 53.8433C39.2164 53.7687 39.2164 53.6567 39.4403 53.5075L40.0746 53.6194L40.709 55.1119C40.8582 55.1866 40.8955 55.1493 40.8209 55C41.1567 54.7761 41.306 54.5896 41.2313 54.3657L41.5672 54.5896C41.791 54.6642 41.8657 54.5896 41.791 54.3657L41.2687 53.9552L41.3806 53.3209L41.0448 53.5448C40.7463 53.3955 40.7836 53.2463 41.1567 53.1343L40.9328 52.9104V52.7985C41.1567 52.8731 41.194 52.7612 41.0448 52.4627L40.2985 52.6866L40.0746 52.7985C40.0373 52.3881 40 52.2761 39.8881 52.3507ZM17.4627 52.7612L16.9403 53.806C17.0896 54.1045 17.2388 54.1418 17.3507 53.9179L18.2836 54.4776C18.4328 54.403 18.4701 54.4776 18.3955 54.7015L18.7313 54.8134L19.2537 53.6567L17.7612 52.7985H17.4627V52.7612ZM22.8358 53.7313L22.6119 53.9552L22.8358 54.291L23.2463 54.5149L23.0224 54.8507L23.9925 55.0746H23.6567C23.5075 55.4104 23.6194 55.5597 23.9925 55.4851V55.597L23.2463 55.4851L23.3582 55.2612V54.9254L23.0224 55.5597L23.2463 55.6716H23.1343L22.7985 56.0821L23.8433 56.4179C24.0672 56.3433 24.1418 56.4179 24.0672 56.6418L23.8433 56.5299C23.5448 56.4552 23.4701 56.5299 23.5075 56.7537C23.6567 56.903 23.9179 56.9403 24.3657 56.8657L24.5896 56.3433H24.1791L24.5149 56.2313C24.6642 56.0821 24.7388 55.8582 24.7388 55.4851V55.709C24.9627 55.7836 25.0373 55.6716 24.9627 55.3731C24.5522 55.2239 24.403 55.3358 24.5522 55.709H24.3284L24.4403 55.3731H24.3284L24.1045 55.1493L24.3284 55.0373L24.2164 54.9254L24.4403 54.8134L24.3284 54.7015L24.6642 54.9254L24.3284 55.1493L24.8507 55.2612C25.0746 55.3358 25.1493 55.2612 25.0746 55.0373V54.8134C25.1493 54.5895 25.1119 54.5149 24.9627 54.5896V54.4776C25.0373 54.2537 25 54.1791 24.8507 54.2537C24.7015 54.4776 24.5896 54.5149 24.5149 54.3657C24.2164 54.4403 24.1791 54.3284 24.291 54.0299C24.0672 53.9552 23.9925 54.0298 24.0672 54.2537H23.7313H23.5075L23.6194 54.0299C23.4701 53.7313 23.3209 53.7687 23.209 54.1418L23.097 54.0299L22.8358 53.7313ZM35.4478 54.1418L34.403 54.4776C34.1045 54.5522 34.0299 54.4776 34.0672 54.2537H33.8433L33.4328 55.2239C33.2836 55.2985 33.3209 55.3731 33.5448 55.4478L33.8806 55.3358V55.8582C34.0299 55.9328 34.0299 56.0075 33.8806 56.0821C33.5448 56.0075 33.4328 56.1194 33.5448 56.4179L34.9254 56.194C34.8507 56.5299 34.9254 56.7537 35.1493 56.8284L35.3731 56.7164L35.2612 56.0821L36.2313 55.9701V55.5597L35.4851 55.7836C35.1493 55.8582 35.0373 55.709 35.1493 55.3731L35.4478 55.2239C35.7836 55.3731 35.8955 55.2612 35.7836 54.8881L35.0373 55L34.9254 54.7761L35.6716 54.4403C35.8209 54.5149 35.8582 54.4776 35.7836 54.3284L35.4478 54.1418ZM22.6493 54.4776L22.4254 54.8134L22.8358 55.0373L22.9478 54.8134L22.6493 54.4776ZM28.9925 54.5896V54.8134H28.0224V55.1493H28.9925V55.2612H28.2463L28.1343 55.4851L28.9925 55.597H28.0224L27.7985 55.8209L27.9104 55.9328H30.4478V55.597H29.403V55.4851H30.1493V55.2239H29.403L29.6269 55H30.3731V54.7761H29.403C29.403 54.5896 29.2537 54.5149 28.9925 54.5896ZM23.0597 54.8881L22.8358 55.1119C22.7612 55.2612 22.8358 55.2985 23.0597 55.2239L23.1716 55L23.0597 54.8881ZM23.5821 54.8881L23.4701 55.2985H23.5821V54.8881ZM22.5373 55.3358L22.1269 56.194L22.4627 56.306L22.8731 55.5597L22.5373 55.3358ZM28.2463 55.9701V56.9403L28.1343 57.0522L28.3582 57.4627L28.5821 57.1269L28.694 56.903H29.7388C29.8134 57.1269 29.7015 57.2015 29.403 57.1269V57.3507C29.7388 57.4254 30 57.3881 30.1493 57.2388V55.9701H28.2463ZM26.3806 4.21642C26.7537 4.14179 27.0149 4.21642 27.0522 4.47761L27.1642 5.22388L26.791 5.70896C26.4552 5.78358 26.2687 5.67164 26.194 5.44776L26.1194 4.47761L26.3806 4.21642ZM42.8731 7.31343L42.8358 7.46269C42.9104 7.79851 42.8358 8.02239 42.6866 8.13433L42.3134 7.87313L42.8731 7.31343ZM15.3731 8.24627L15.9701 8.73134L15.8209 8.99254C15.5597 9.06716 15.4851 8.99254 15.5597 8.73134L15.3731 8.24627ZM51.3433 14.0672L51.194 14.3284L50.8209 14.8134L50.5597 14.403L51.3433 14.0672ZM8.6194 14.1791L9.29104 14.5522L9.02985 14.9254L8.6194 14.1791ZM31.903 26.9776H32.2761V27.6493L31.6791 28.3582L30.6716 28.7687L30.4478 28.1716V27.6866L31.903 26.9776ZM32.5373 28.7687L32.5746 29.0299L32.3134 29.7015L31.9776 29.8134L31.6045 29.3284L32.5373 28.7687ZM26.4925 29.291C26.7164 29.2164 26.7537 29.3284 26.6418 29.6269L26.306 29.4776L26.4925 29.291ZM33.806 31.4179L33.9552 31.4552L32.7239 32.7612L32.3507 31.791H32.8358L33.806 31.4179ZM16.194 34.5896L17.8358 35.3358L19.1418 35.6716L18.9179 36.3433L18.5075 36.9403L16.9776 36.6045L15.709 36.0821L15.4478 35.8209L16.194 34.5896ZM30.1866 35.3358C30.4104 35.2612 30.5224 35.2985 30.4478 35.4851L30.2239 36.4552L30.4478 37.1269L30.0746 37.2388L29.6642 37.1269L29.1791 36.6418L29.1045 36.1567H30L30.0373 35.9328H29.1418L29.1045 35.709L29.2537 35.5597C29.6642 35.597 30 35.5224 30.1866 35.3358ZM37.3881 36.0821C37.5373 36.1567 37.6119 36.306 37.5373 36.5672L37.2015 36.7164C37.1642 36.3806 37.2015 36.1567 37.3881 36.0821ZM6.60448 40.4104L6.86567 41.0075H6.75373C6.82836 40.8582 6.75373 40.7836 6.60448 40.8582C6.52985 41.1194 6.30597 41.2313 6.00746 41.194V40.8582H6.52985L6.60448 40.4104ZM7.23881 40.4104L7.38806 40.6716C7.27612 40.8955 7.16418 40.8955 7.05224 40.6716L7.23881 40.4104ZM7.57463 40.9328L7.91045 41.3433C7.64925 41.4179 7.5 41.3433 7.42537 41.194L7.57463 40.9328ZM6.6791 41.1567C6.90298 41.0821 6.97761 41.194 6.90298 41.4925H7.27612L7.53731 41.9776H7.42537C7.5 41.8284 7.42537 41.7537 7.27612 41.8284L6.90298 41.7164L6.6791 41.1567ZM6.08209 41.5672L6.34328 41.9403L6.19403 41.9776C6.00746 41.903 5.97015 41.791 6.08209 41.5672ZM52.5 41.9776L52.6493 42.0149L52.4254 42.3881C52.2388 42.4627 52.1642 42.4254 52.2015 42.2388L52.5 41.9776ZM52.8358 42.2015L52.8731 42.4627L52.6119 42.6119L52.7612 42.3507L52.8358 42.2015ZM53.1343 42.5373L53.2836 42.5746L53.1716 42.8358L53.5075 42.8731L53.1343 43.3582L52.8731 42.7612L53.1343 42.5373ZM51.791 43.0597C52.0522 43.209 52.0149 43.3582 51.6791 43.4701L51.6418 43.209L51.791 43.0597ZM53.7687 43.0597C54.1045 43.209 54.1045 43.3582 53.8806 43.4701C53.5821 43.3209 53.5448 43.1716 53.7687 43.0597ZM52.0522 43.3582C52.2388 43.2836 52.3134 43.3209 52.2761 43.5075L52.0149 43.6567L52.0522 43.5075V43.3582ZM53.3209 43.5821C53.6194 43.4701 53.7313 43.5448 53.6567 43.8433L53.5075 43.806C53.2836 43.8433 53.2463 43.7687 53.3209 43.5821ZM52.9851 43.9925L53.3209 44.1418C53.3955 44.291 53.3209 44.3657 53.1716 44.291L52.9851 43.9925ZM9.66418 44.9627C9.81343 44.9254 9.88806 44.9627 9.81343 45.1119L9.21642 45.3731L9.32836 45.1493L9.66418 44.9627ZM10.2985 45.8955L10.6716 46.3806L10.2612 46.0448L10.2985 45.8955ZM10.1119 46.1194L10.3731 46.4925L10.1119 46.5298L9.96269 46.2687L10.1119 46.1194ZM9.36567 46.5298L9.85075 47.1269L9.70149 47.1642L9.32836 46.6791L9.36567 46.5298ZM47.9104 47.3881L48.2463 47.5373L47.9104 47.5746V47.3881ZM48.3209 47.7985L48.6567 47.9478L48.3209 47.9851V47.7985ZM48.806 48.2463L49.0672 48.3955L48.8806 48.5075L48.806 48.2463ZM45.3358 49.8134L45.3731 49.9627L44.7761 50.4478H44.5522L44.6642 50.2239L45.3358 49.8134ZM45.4104 50.3358L45.4478 50.6716L45.0746 50.8955C44.8134 50.7463 44.8507 50.597 45.1866 50.4851L45.4104 50.3358ZM46.0448 51.0821L46.194 51.4179L45.5597 51.6418L45.709 51.306L46.0448 51.0821ZM44.2537 51.194L44.291 51.3433L44.0672 51.4552L44.2537 51.194ZM44.4776 51.4925L44.5149 51.6418L44.291 51.7537L44.4776 51.4925ZM40.5597 52.7612L40.1493 53.2836C40 53.3582 39.9254 53.2836 40 53.1343L40.5597 52.7612ZM17.7239 53.209L18.7313 53.7313L18.5821 54.1418L17.5746 53.7313L17.7239 53.209ZM40.4478 53.3955L40.9328 54.1791L40.597 54.3284L40.2612 53.5448L40.4478 53.3955ZM23.7313 54.3657L24.2164 54.5149L23.806 54.5522L23.7687 54.7761L23.7313 54.5522L23.5075 54.5149L23.7313 54.3657ZM34.1045 54.7761C34.5522 54.6269 34.7015 54.7388 34.5896 55.1119L33.8433 55.2239L34.1045 54.7761ZM34.2537 55.4104H34.7015V55.5597L34.8134 55.8209L34.291 55.9328V55.4104H34.2537ZM23.4328 55.6343L23.694 55.6716L23.4328 55.709V55.6343ZM23.8433 55.7463L24.3284 55.8955L24.1791 55.9328L23.8433 55.8209V55.7463ZM23.3209 55.8582L23.694 56.0075L23.4328 56.0448L23.3209 55.8582ZM23.8433 56.0448L24.1045 56.0821L23.8433 56.1194V56.0448ZM28.806 56.1567H29.6642L29.7015 56.3806L28.6567 56.3433L28.806 56.1567ZM28.6194 56.6045L29.7388 56.6418L28.6194 56.6791V56.6045Z" fill="#0A113D"/>
</svg>
