<svg xmlns="http://www.w3.org/2000/svg" width="140" height="140" viewBox="0 0 140 140" version="1.1">
	<path d="M 55.500 1.497 C 51.650 2.289, 44.225 5.043, 39 7.616 C 31.089 11.512, 28.070 13.734, 20.951 20.897 C 6.666 35.271, 0.544 50.001, 0.544 70 C 0.544 89.999, 6.666 104.729, 20.951 119.103 C 28.075 126.272, 31.083 128.484, 39 132.379 C 50.949 138.257, 61.662 140.468, 74.549 139.714 C 102.604 138.072, 127.914 118.711, 136.268 92.500 C 137.496 88.650, 138.837 85.350, 139.250 85.167 C 140.589 84.571, 140.041 81, 138.610 81 C 137.846 81, 132.109 82.837, 125.860 85.082 C 110.692 90.532, 108.769 90.785, 104.540 87.887 C 102.082 86.203, 101.410 85.211, 102.134 84.339 C 102.810 83.524, 102.789 82.474, 102.069 81.130 C 100.606 78.396, 100.708 78, 102.875 78 C 104.172 78, 104.941 78.956, 105.371 81.103 C 105.712 82.809, 105.743 84.607, 105.439 85.098 C 105.136 85.590, 105.969 86.484, 107.291 87.087 C 109.302 88.003, 112.118 87.344, 124.567 83.044 C 132.747 80.219, 139.784 77.365, 140.205 76.703 C 141.289 74.997, 141.182 64.228, 140.045 60.571 C 139.520 58.882, 137.959 53.675, 136.576 49 C 130.234 27.555, 113.742 10.884, 91.500 3.437 C 81.575 0.113, 66.238 -0.713, 55.500 1.497 M 68.473 9.044 C 68.118 9.618, 68.429 10.829, 69.164 11.736 C 70.117 12.911, 70.141 13.168, 69.250 12.633 C 68.563 12.220, 68 12.359, 68 12.941 C 68 13.523, 68.648 14, 69.441 14 C 71.265 14, 72.732 11.744, 71.233 11.244 C 70.617 11.039, 70.360 10.225, 70.663 9.435 C 71.293 7.794, 69.449 7.464, 68.473 9.044 M 60.364 10.493 C 60.018 11.396, 60.214 12.614, 60.800 13.200 C 62.324 14.724, 65.210 13.331, 64.812 11.265 C 64.369 8.963, 61.165 8.407, 60.364 10.493 M 75.839 11.750 C 76.302 14.019, 76.473 14.150, 76.816 12.500 C 77.044 11.400, 77.742 10.169, 78.366 9.765 C 79.045 9.325, 78.654 9.024, 77.389 9.015 C 75.614 9.002, 75.367 9.438, 75.839 11.750 M 55.015 10.857 C 55.006 11.650, 54.377 11.975, 53.500 11.638 C 51.832 10.998, 51.734 11.555, 53 14.500 C 53.800 16.361, 53.864 16.370, 53.930 14.628 C 53.988 13.078, 54.259 12.970, 55.500 14 C 56.710 15.004, 56.997 14.979, 56.985 13.872 C 56.963 11.954, 55.036 9.003, 55.015 10.857 M 61 11.500 C 61 12.417, 61.484 13.005, 62.075 12.808 C 62.666 12.611, 63.150 12.022, 63.150 11.500 C 63.150 10.978, 62.666 10.389, 62.075 10.192 C 61.484 9.995, 61 10.583, 61 11.500 M 82 10.918 C 82 11.423, 81.727 12.548, 81.393 13.418 C 80.989 14.471, 81.344 15, 82.452 15 C 83.368 15, 83.840 14.550, 83.500 14 C 83.160 13.450, 83.471 12.993, 84.191 12.985 C 85.229 12.973, 85.218 12.791, 84.137 12.106 C 82.986 11.377, 82.986 11.158, 84.137 10.700 C 85.087 10.322, 84.970 10.134, 83.750 10.079 C 82.787 10.036, 82 10.413, 82 10.918 M 88.607 12.582 C 87.531 15.385, 87.957 17.002, 89.750 16.921 C 90.793 16.874, 90.995 16.638, 90.252 16.338 C 89.480 16.027, 89.235 14.913, 89.610 13.417 C 90.286 10.725, 89.554 10.115, 88.607 12.582 M 43.719 15.750 C 44.293 17.282, 44.165 17.329, 42.687 16.128 C 40.947 14.712, 40.527 15.603, 41.607 18.418 C 41.941 19.288, 42.642 20, 43.166 20 C 43.690 20, 43.793 19.474, 43.395 18.830 C 42.900 18.029, 43.231 17.875, 44.447 18.341 C 45.796 18.859, 46.076 18.640, 45.611 17.430 C 45.275 16.553, 45 15.423, 45 14.918 C 45 14.413, 44.564 14, 44.031 14 C 43.499 14, 43.358 14.787, 43.719 15.750 M 98.200 17.200 C 96.364 19.036, 96.773 20.429, 98.692 18.872 C 99.623 18.118, 100.102 17.971, 99.758 18.548 C 99.414 19.124, 99.545 20.249, 100.051 21.048 C 100.719 22.105, 100.974 21.616, 100.985 19.250 C 101.001 15.821, 100.182 15.218, 98.200 17.200 M 35.070 19.250 C 35.175 21.105, 36.848 24.705, 36.930 23.250 C 36.968 22.563, 37.745 22, 38.655 22 C 40.143 22, 40.128 21.799, 38.500 20 C 36.444 17.729, 34.967 17.405, 35.070 19.250 M 104.207 21.041 C 102.929 23.087, 103.325 25, 105.028 25 C 105.528 25, 105.676 24.319, 105.357 23.487 C 105.037 22.655, 105.332 21.305, 106.011 20.487 C 106.689 19.669, 106.848 19, 106.363 19 C 105.878 19, 104.908 19.918, 104.207 21.041 M 30.609 22.261 C 31.058 23.551, 30.818 23.867, 29.712 23.443 C 28.882 23.124, 27.879 23.388, 27.483 24.028 C 26.658 25.363, 29.591 28.742, 30.653 27.680 C 31.039 27.295, 30.487 26.262, 29.427 25.384 C 27.663 23.924, 27.728 23.924, 30.198 25.383 C 33.599 27.393, 34.621 25.953, 31.993 22.854 C 30.599 21.211, 30.181 21.032, 30.609 22.261 M 76.200 24.200 C 75.540 24.860, 75 25.976, 75 26.680 C 75 27.383, 73.230 28.862, 71.066 29.966 C 66.591 32.249, 64 35.432, 64 38.646 C 64 39.856, 62.904 42.149, 61.565 43.740 C 58.874 46.939, 55.427 54.760, 56.316 55.650 C 56.842 56.176, 60 49.647, 60 48.033 C 60 47.635, 60.902 46.494, 62.004 45.496 C 63.107 44.499, 64.501 41.841, 65.102 39.591 C 66.463 34.499, 67.631 33.053, 71.785 31.317 C 73.593 30.562, 75.477 28.875, 75.974 27.569 C 77.318 24.035, 78.889 23.547, 81.384 25.891 C 82.613 27.046, 84.819 28.090, 86.286 28.212 C 89.679 28.492, 90.422 30.427, 88.351 33.587 C 86.868 35.851, 86.861 36.420, 88.278 40.027 C 89.901 44.158, 89.473 47.087, 86.361 53.154 C 84.812 56.175, 84.530 62, 85.933 62 C 86.446 62, 86.827 60.637, 86.780 58.970 C 86.733 57.304, 87.162 54.941, 87.733 53.720 C 90.289 48.260, 91.232 43.301, 90.112 41.210 C 88.416 38.040, 88.780 34.509, 91.011 32.490 C 92.964 30.723, 92.969 30.620, 91.178 28.951 C 90.163 28.005, 87.939 26.926, 86.235 26.552 C 84.532 26.178, 82.602 25.225, 81.947 24.436 C 80.495 22.687, 77.823 22.577, 76.200 24.200 M 109.635 24.850 C 108.054 26.598, 108.056 26.799, 109.667 28.107 C 110.911 29.116, 111.170 29.144, 110.606 28.206 C 110.178 27.495, 110.381 26.246, 111.056 25.432 C 112.890 23.223, 111.590 22.691, 109.635 24.850 M 114.500 29 C 113.498 30.107, 112.904 31.237, 113.179 31.512 C 113.454 31.787, 114.498 31.107, 115.500 30 C 116.502 28.893, 117.096 27.763, 116.821 27.488 C 116.546 27.213, 115.502 27.893, 114.500 29 M 24.506 30.006 C 25.504 31.110, 26.538 31.795, 26.803 31.530 C 27.475 30.858, 24.981 28, 23.723 28 C 23.155 28, 23.507 28.903, 24.506 30.006 M 19 32.566 C 19 33.908, 21.158 37, 22.094 37 C 22.657 37, 22.840 36.550, 22.500 36 C 22.160 35.450, 22.696 34.986, 23.691 34.968 C 25.379 34.939, 25.370 34.838, 23.559 33.468 C 21.627 32.007, 19 31.487, 19 32.566 M 117.750 32.689 C 116.787 32.941, 116 33.590, 116 34.132 C 116 34.674, 116.450 34.840, 117 34.500 C 117.550 34.160, 118.014 34.696, 118.032 35.691 C 118.061 37.379, 118.162 37.370, 119.532 35.559 C 120.339 34.491, 121 33.254, 121 32.809 C 121 31.959, 120.600 31.944, 117.750 32.689 M 15.144 37.730 C 14.160 39.569, 14.200 39.860, 15.376 39.409 C 16.158 39.109, 17.095 39.344, 17.458 39.932 C 17.821 40.519, 18.654 40.986, 19.309 40.968 C 20.026 40.949, 19.868 40.452, 18.912 39.718 C 18.039 39.048, 17.102 37.826, 16.830 37.003 C 16.446 35.842, 16.068 36.005, 15.144 37.730 M 121.500 38.666 C 119.768 40.054, 119.743 40.185, 121.315 39.641 C 122.797 39.128, 123.009 39.395, 122.471 41.092 C 121.882 42.947, 122.037 43.051, 123.905 42.051 C 125.057 41.434, 126 40.469, 126 39.906 C 126 39.343, 125.555 39.157, 125.011 39.493 C 124.445 39.843, 124.277 39.442, 124.618 38.552 C 125.379 36.569, 124.056 36.618, 121.500 38.666 M 125.307 45.093 C 124.053 46.347, 124.636 49, 126.166 49 C 126.690 49, 126.840 48.550, 126.500 48 C 125.363 46.160, 127.059 44.805, 128.752 46.201 C 130.068 47.288, 130.244 47.255, 129.830 46 C 129.197 44.085, 126.797 43.603, 125.307 45.093 M 25.293 45.627 C 26.491 46.824, 23.002 51.869, 19.034 54.676 C 14.641 57.784, 14.030 59, 16.862 59 C 19.093 59, 25.936 53.762, 27.905 50.546 C 29.560 47.844, 28.770 45, 26.365 45 C 25.431 45, 24.949 45.282, 25.293 45.627 M 129.250 51.094 C 126.797 52.012, 126.339 53.474, 128.155 54.595 C 128.829 55.012, 129.039 54.872, 128.660 54.259 C 128.303 53.682, 128.707 52.943, 129.558 52.616 C 130.408 52.290, 130.875 52.393, 130.596 52.845 C 130.317 53.297, 130.743 53.667, 131.544 53.667 C 133.156 53.667, 133.338 53.064, 132.235 51.376 C 131.763 50.655, 130.693 50.554, 129.250 51.094 M 33.175 54.654 C 33.380 56.437, 34.174 57.611, 35.325 57.829 C 36.799 58.109, 37.087 57.631, 36.825 55.346 C 36.620 53.563, 35.826 52.389, 34.675 52.171 C 33.201 51.891, 32.913 52.369, 33.175 54.654 M 25.524 54.961 C 24.761 56.196, 29.122 62.971, 30.691 62.988 C 32.979 63.011, 32.893 61.306, 30.420 57.667 C 27.890 53.944, 26.595 53.228, 25.524 54.961 M 70 55.179 C 70 56.047, 68.640 57.321, 66.979 58.009 C 65.317 58.697, 63.701 59.675, 63.388 60.182 C 63.075 60.688, 64.489 60.405, 66.531 59.551 C 70.681 57.817, 72.258 57.551, 70.029 58.961 C 67.833 60.350, 69.510 61.340, 72.702 60.539 C 75.284 59.891, 75.361 59.737, 73.710 58.530 C 72.066 57.328, 72.180 57.133, 75.123 56.107 C 76.884 55.493, 78.089 54.755, 77.801 54.468 C 77.513 54.180, 76.147 54.374, 74.766 54.899 C 73.050 55.551, 71.897 55.497, 71.127 54.727 C 70.291 53.891, 70 54.008, 70 55.179 M 46.833 55.761 C 46.367 56.826, 27.284 65.605, 22.819 66.808 C 19.841 67.611, 19.029 67.517, 18.568 66.317 C 17.572 63.721, 15.951 65.367, 13.445 71.520 C 10.606 78.491, 10.534 79, 12.401 79 C 13.171 79, 14.622 77.018, 15.624 74.595 C 17.180 70.832, 17.953 70.107, 20.921 69.625 C 25.202 68.931, 25.371 69.091, 23.865 72.398 C 22.076 76.323, 24.224 78.115, 26.519 74.612 L 28.223 72.010 31.188 74.505 C 32.819 75.877, 34.569 77, 35.077 77 C 36.758 77, 36.040 78.794, 32.507 83.423 C 29.463 87.411, 29.262 88, 30.948 88 C 32.011 88, 33.138 87.586, 33.450 87.081 C 33.770 86.563, 35.407 86.855, 37.199 87.749 L 40.379 89.336 36.190 93.054 C 33.885 95.099, 32 97.048, 32 97.386 C 32 98.832, 34.012 97.742, 38.289 93.977 L 42.859 89.954 50.180 92.048 C 59.288 94.654, 76.338 95.673, 85.074 94.135 C 95.038 92.380, 99 91.048, 99 89.453 C 99 87.628, 98.610 87.637, 90.312 89.662 C 80.941 91.949, 62.602 91.907, 54.009 89.579 C 45.669 87.319, 45.598 87.263, 47.487 84.379 C 49.374 81.500, 48.738 80, 45.632 80 C 44.395 80, 42.570 79.406, 41.577 78.680 C 39.934 77.478, 40.188 77.200, 44.397 75.593 C 48.941 73.857, 51 71.666, 51 68.566 C 51 66.294, 48.248 66.643, 47.497 69.011 C 45.737 74.554, 32 75.740, 32 70.348 C 32 69.201, 31.314 68.898, 29.500 69.245 C 25.343 70.039, 26.691 68.388, 31.750 66.489 C 34.362 65.508, 39.434 63.243, 43.020 61.456 L 49.540 58.207 53.770 60.705 C 59.792 64.261, 59.032 61.941, 52.934 58.149 C 47.365 54.688, 47.312 54.667, 46.833 55.761 M 22 61 C 23.290 63.410, 26.515 63.784, 25.607 61.418 C 25.273 60.548, 25 59.648, 25 59.418 C 25 59.188, 24.084 59, 22.965 59 C 21.240 59, 21.093 59.305, 22 61 M 69.250 63.011 C 66.855 64.085, 65 64.463, 65 63.876 C 65 63.302, 64.438 63.040, 63.750 63.292 C 63.063 63.544, 62.613 64.256, 62.750 64.875 C 62.888 65.494, 62.550 66, 62 66 C 61.450 66, 61 65.325, 61 64.500 C 61 63.675, 60.550 63, 60 63 C 59.450 63, 59 64.077, 59 65.393 C 59 66.709, 58.296 68.056, 57.437 68.386 C 56.577 68.716, 56.158 69.446, 56.506 70.009 C 56.854 70.572, 57.516 70.799, 57.979 70.513 C 58.441 70.227, 59.551 70.274, 60.446 70.618 C 61.944 71.193, 61.945 71.435, 60.456 73.708 C 58.278 77.032, 59.678 78.150, 62.075 75 C 63.122 73.625, 64.737 71.713, 65.664 70.750 C 66.676 69.699, 66.880 69, 66.175 69 C 64.484 69, 64.727 67.319, 66.517 66.632 C 67.989 66.067, 72 68.676, 72 70.198 C 72 70.613, 70.358 71.795, 68.350 72.825 C 66.199 73.928, 65.155 74.978, 65.808 75.381 C 66.416 75.757, 69.296 74.750, 72.207 73.142 C 75.118 71.535, 79.862 69.459, 82.750 68.529 C 85.638 67.600, 88 66.594, 88 66.295 C 88 65.702, 83.530 66.461, 80.801 67.517 C 79.488 68.026, 78.907 67.418, 78.242 64.837 C 77.197 60.784, 75.141 60.366, 69.250 63.011 M 0.336 70 C 0.336 74.125, 0.513 75.813, 0.728 73.750 C 0.944 71.688, 0.944 68.313, 0.728 66.250 C 0.513 64.188, 0.336 65.875, 0.336 70 M 72.729 64.092 C 70.717 65.263, 71.330 67.194, 73.455 66.379 C 74.936 65.810, 76.428 62.979, 75.219 63.030 C 74.823 63.047, 73.703 63.525, 72.729 64.092 M 40 66.031 C 40 67.422, 42.626 68.349, 44.059 67.464 C 44.901 66.943, 44.847 66.518, 43.857 65.890 C 41.996 64.711, 40 64.784, 40 66.031 M 107.425 70.414 C 107.466 72.291, 107.950 73.754, 108.500 73.664 C 109.078 73.569, 109.358 75.292, 109.164 77.750 C 108.833 81.933, 110.396 83.752, 111.311 80.250 C 111.562 79.287, 111.820 79.963, 111.884 81.750 C 111.948 83.537, 112.420 85, 112.933 85 C 114.789 85, 115.082 80.975, 113.473 77.585 C 112.487 75.507, 112.106 73.242, 112.521 71.934 C 112.974 70.508, 112.847 69.976, 112.157 70.403 C 111.576 70.762, 110.612 70.143, 110.015 69.028 C 108.397 66.005, 107.340 66.570, 107.425 70.414 M 114.732 70.250 C 114.145 74.103, 114.472 74.683, 116.349 73.125 C 117.456 72.207, 118.078 72.470, 119.334 74.387 C 120.824 76.661, 120.791 76.895, 118.790 78.224 C 117.474 79.097, 116.953 80.115, 117.429 80.884 C 118.016 81.834, 118.705 81.699, 120.332 80.315 C 121.805 79.062, 122.087 78.993, 121.241 80.092 C 120.568 80.968, 120.310 81.976, 120.667 82.333 C 121.662 83.329, 124 80.978, 124 78.982 C 124 77.948, 126.086 75.870, 129 74 C 133.772 70.938, 135.282 69, 132.895 69 C 132.287 69, 129.790 70.350, 127.345 72 C 122.258 75.433, 122 75.510, 122 73.583 C 122 72.804, 121.438 71.938, 120.750 71.659 C 119.778 71.265, 119.802 70.941, 120.857 70.201 C 121.845 69.508, 121.901 69.057, 121.063 68.539 C 120.430 68.148, 119.257 68.372, 118.456 69.036 C 117.283 70.010, 117 69.930, 117 68.622 C 117 65.673, 115.236 66.938, 114.732 70.250 M 35.190 69.618 C 36.081 70.510, 37.348 70.903, 38.011 70.493 C 39.411 69.628, 37.506 68.041, 35.036 68.015 C 33.815 68.003, 33.840 68.269, 35.190 69.618 M 92 72.050 C 80.832 75.486, 80.878 75.481, 81.699 73.342 C 82.245 71.918, 81.799 71.771, 78.544 72.299 C 73.809 73.068, 73.567 73.322, 75.008 76.015 C 75.886 77.655, 76.842 78.086, 78.839 77.740 C 83.948 76.857, 103.973 70.494, 103.986 69.750 C 104.008 68.569, 102.156 68.924, 92 72.050 M 101 73.378 C 101 75.039, 103.433 77.234, 104.307 76.360 C 105.120 75.547, 103.215 72, 101.965 72 C 101.434 72, 101 72.620, 101 73.378 M 76 75 C 76 75.550, 76.423 76, 76.941 76 C 77.459 76, 78.160 75.550, 78.500 75 C 78.840 74.450, 78.416 74, 77.559 74 C 76.702 74, 76 74.450, 76 75 M 53 80 C 53 80.550, 53.408 81, 53.906 81 C 54.405 81, 54.579 81.895, 54.293 82.989 C 54.007 84.083, 53.304 84.688, 52.732 84.334 C 52.128 83.961, 51.990 84.175, 52.405 84.845 C 52.797 85.480, 53.879 85.999, 54.809 85.997 C 56.060 85.995, 56.520 85.084, 56.575 82.497 C 56.634 79.751, 56.258 79, 54.825 79 C 53.821 79, 53 79.450, 53 80 M 63 81.300 C 63 82.015, 63.559 83.159, 64.242 83.842 C 65.230 84.830, 65.185 85.267, 64.021 85.987 C 63.216 86.484, 62.872 87.205, 63.255 87.588 C 63.638 87.971, 64.597 87.749, 65.387 87.094 C 66.225 86.398, 67.061 86.290, 67.397 86.833 C 67.713 87.345, 69.891 87.751, 72.236 87.736 C 74.581 87.720, 75.713 87.515, 74.750 87.281 C 73.787 87.046, 73 86.469, 73 86 C 73 85.531, 73.787 84.941, 74.750 84.689 C 76.417 84.254, 76.417 84.226, 74.750 84.116 C 72.727 83.982, 72.416 82.425, 74.250 81.613 C 74.938 81.308, 73.607 81.140, 71.293 81.239 C 68.979 81.338, 66.766 81.099, 66.376 80.709 C 65.196 79.529, 63 79.913, 63 81.300 M 80.524 80.961 C 80.080 81.679, 80.613 82.348, 81.899 82.684 C 83.055 82.986, 84 83.856, 84 84.617 C 84 85.377, 83.662 85.888, 83.250 85.750 C 82.838 85.612, 82.388 85.838, 82.250 86.250 C 81.632 88.105, 82.145 88.178, 84 86.500 C 85.134 85.474, 86 85.190, 86 85.845 C 86 86.480, 86.675 87, 87.500 87 C 88.325 87, 89 86.541, 89 85.980 C 89 85.420, 90.154 85.170, 91.565 85.426 C 93.279 85.737, 93.984 85.495, 93.690 84.696 C 93.448 84.038, 92.744 83.612, 92.125 83.750 C 91.506 83.888, 91 83.523, 91 82.941 C 91 82.356, 90.448 82.223, 89.768 82.644 C 87.387 84.115, 85 83.709, 85 81.833 C 85 80.825, 84.550 80, 84 80 C 83.450 80, 82.993 80.563, 82.985 81.250 C 82.973 82.170, 82.742 82.142, 82.110 81.143 C 81.472 80.136, 81.063 80.089, 80.524 80.961 M 37.043 82.448 C 36.291 83.355, 36.695 83.996, 38.555 84.843 C 41.899 86.367, 43.669 86.305, 44.307 84.641 C 45.048 82.713, 38.472 80.726, 37.043 82.448 M 68.863 83.894 C 69.971 84.596, 69.980 84.840, 68.914 85.195 C 67.971 85.510, 68.080 85.817, 69.301 86.285 C 70.545 86.763, 71 86.410, 71 84.969 C 71 83.755, 70.329 83.006, 69.250 83.015 C 67.880 83.027, 67.796 83.218, 68.863 83.894 M 14.274 94.724 C 12.481 96.306, 12.409 96.773, 13.616 99 C 14.361 100.375, 14.977 100.938, 14.985 100.250 C 14.993 99.563, 15.620 99, 16.378 99 C 17.135 99, 18.259 98.393, 18.874 97.652 C 19.725 96.627, 19.549 95.902, 18.139 94.626 C 16.402 93.054, 16.159 93.060, 14.274 94.724 M 53 97.417 C 53 97.646, 53.862 99.845, 54.915 102.302 C 56.526 106.061, 57.566 107.051, 61.471 108.542 C 66.197 110.347, 69 113.828, 69 117.891 C 69 120.117, 70.438 121.303, 73.677 121.749 C 76.212 122.098, 76.974 119.479, 75.874 114.197 C 75.496 112.381, 75.542 108.331, 75.977 105.197 C 76.847 98.920, 76.536 97.428, 75.122 101.105 C 74.615 102.422, 74.294 107.373, 74.408 112.106 C 74.592 119.771, 74.429 120.663, 72.915 120.267 C 71.980 120.023, 70.945 118.475, 70.615 116.827 C 69.657 112.033, 66.487 108.463, 61.996 107.117 C 58.521 106.076, 57.582 105.191, 55.975 101.442 C 54.363 97.680, 53 95.837, 53 97.417 M 120.916 99.156 C 119.932 100.996, 120.110 101.577, 122.131 103.118 C 124.436 104.874, 124.545 104.865, 126.146 102.774 C 127.702 100.742, 127.666 100.525, 125.488 98.812 C 122.574 96.520, 122.317 96.539, 120.916 99.156 M 21.767 104.825 C 19.160 106.535, 19.156 106.556, 21.029 109.022 L 22.912 111.500 25.081 109.347 C 27.023 107.419, 27.100 106.981, 25.818 105.151 C 24.444 103.188, 24.281 103.175, 21.767 104.825 M 112.665 108.974 C 110.884 110.774, 110.890 110.890, 112.844 112.844 C 114.836 114.836, 114.883 114.836, 117.083 112.928 C 119.238 111.059, 119.251 110.935, 117.499 108.999 C 115.326 106.597, 115.017 106.596, 112.665 108.974 M 31 114.059 C 31 114.641, 31.520 114.797, 32.155 114.405 C 32.876 113.959, 33.037 114.131, 32.585 114.862 C 32.187 115.506, 31.534 115.830, 31.133 115.582 C 30.732 115.335, 29.859 115.469, 29.192 115.882 C 28.332 116.413, 28.756 117.340, 30.649 119.066 C 32.580 120.826, 33.151 121.029, 32.711 119.801 C 32.304 118.666, 32.529 118.266, 33.391 118.596 C 34.100 118.868, 35.223 118.436, 35.887 117.636 C 36.865 116.458, 36.662 115.877, 34.825 114.590 C 32.182 112.739, 31 112.575, 31 114.059 M 102.454 117.410 C 100.598 118.767, 100.593 118.892, 102.320 120.801 C 104.057 122.720, 107.397 122.784, 108.549 120.920 C 109.230 119.820, 106.824 116, 105.451 116 C 104.863 116, 103.515 116.634, 102.454 117.410 M 41.571 122.571 C 39.496 124.647, 39.589 125.710, 41.958 126.978 C 43.560 127.835, 44.131 127.623, 45.101 125.811 C 45.988 124.153, 45.997 123.499, 45.137 123.212 C 44.505 123.002, 44.242 122.418, 44.553 121.915 C 45.492 120.396, 43.254 120.888, 41.571 122.571 M 93 123 C 93 123.550, 92.325 124, 91.500 124 C 89.674 124, 89.667 124.129, 91.305 127.287 C 92.560 129.706, 92.696 129.738, 94.851 128.112 C 96.512 126.859, 96.886 125.915, 96.296 124.461 C 95.455 122.389, 93 121.301, 93 123 M 43 125 C 42.099 125.582, 41.975 125.975, 42.691 125.985 C 43.346 125.993, 44.160 125.550, 44.500 125 C 45.267 123.758, 44.921 123.758, 43 125 M 53.729 126.737 C 54.071 127.628, 53.919 128.068, 53.384 127.737 C 52.859 127.413, 52.429 127.936, 52.429 128.901 C 52.429 129.865, 53.480 131.151, 54.766 131.757 C 56.822 132.728, 57.217 132.561, 58.051 130.365 C 59.298 127.087, 59.418 127.342, 56.059 126.171 C 53.539 125.292, 53.206 125.373, 53.729 126.737 M 80.577 126.960 C 79.520 127.338, 78.581 128.646, 78.491 129.868 C 78.390 131.243, 78.790 131.911, 79.542 131.622 C 80.210 131.366, 81.149 131.534, 81.628 131.995 C 82.108 132.456, 83.080 132.195, 83.789 131.416 C 84.859 130.242, 84.773 129.997, 83.289 129.985 C 82.086 129.974, 81.892 129.720, 82.697 129.208 C 84.524 128.047, 82.762 126.179, 80.577 126.960 M 66.001 130.750 C 66.001 132.931, 66.487 133.528, 68.352 133.635 C 70.290 133.746, 70.717 133.264, 70.784 130.885 C 70.853 128.473, 70.467 128, 68.433 128 C 66.445 128, 66 128.503, 66.001 130.750" stroke="none" fill="black" fill-rule="evenodd"/>
</svg>