<svg width="22" height="25" viewBox="0 0 22 25" fill="none" xmlns="http://www.w3.org/2000/svg">
<path d="M20.375 16C20.9844 16 21.5 16.5156 21.5 17.125V20.5C21.5 23.0312 19.4844 25 17 25H5C2.46875 25 0.5 23.0312 0.5 20.5V17.125C0.5 16.5156 0.96875 16 1.625 16C2.23438 16 2.75 16.5156 2.75 17.125V20.5C2.75 21.7656 3.73438 22.75 5 22.75H17C18.2188 22.75 19.25 21.7656 19.25 20.5V17.125C19.25 16.5156 19.7188 16 20.375 16ZM10.2031 1.32812L3.82812 7.28125C3.35938 7.75 3.35938 8.45312 3.78125 8.92188C4.20312 9.39062 4.90625 9.39062 5.375 8.96875L9.875 4.75V16.375C9.875 17.0312 10.3438 17.5 11 17.5C11.6094 17.5 12.125 17.0312 12.125 16.4219V4.75L16.5781 8.96875C17.0469 9.39062 17.75 9.39062 18.1719 8.92188C18.3594 8.6875 18.5 8.40625 18.5 8.125C18.5 7.84375 18.3594 7.5625 18.125 7.32812L11.75 1.375C11.3281 0.90625 10.625 0.90625 10.2031 1.32812Z" fill="#808080"/>
</svg>
