<svg width="24" height="24" viewBox="0 0 24 24" fill="none" xmlns="http://www.w3.org/2000/svg">
<path fill-rule="evenodd" clip-rule="evenodd" d="M16.7317 14.5C17.2942 13.9375 16.8879 13 16.1379 13H7.85667C7.10667 13 6.70042 13.9375 7.26292 14.5L11.3879 18.75C11.5442 18.9375 11.7629 19 12.0129 19C12.2317 19 12.4504 18.9375 12.6067 18.75L16.7317 14.5Z" fill="#2C64E3"/>
<path fill-rule="evenodd" clip-rule="evenodd" d="M7.26292 9.53125C6.70042 10.0938 7.10667 11 7.85667 11H16.1379C16.8879 11 17.2942 10.0938 16.7317 9.53125L12.6067 5.28125C12.4504 5.09375 12.2317 5 12.0129 5C11.7942 5 11.5442 5.09375 11.3879 5.28125L7.26292 9.53125Z" fill="#B3B3B3"/>
</svg>
