<svg width="25" height="24" viewBox="0 0 25 24" fill="none" xmlns="http://www.w3.org/2000/svg">
<path d="M10.1667 7C10.4167 7 10.6667 7.25 10.6667 7.5V8.5C10.6667 8.78125 10.4167 9 10.1667 9H9.16675C8.8855 9 8.66675 8.78125 8.66675 8.5V7.5C8.66675 7.25 8.8855 7 9.16675 7H10.1667ZM11.6667 7.5C11.6667 7.25 11.8855 7 12.1667 7H13.1667C13.4167 7 13.6667 7.25 13.6667 7.5V8.5C13.6667 8.78125 13.4167 9 13.1667 9H12.1667C11.8855 9 11.6667 8.78125 11.6667 8.5V7.5ZM16.1667 7C16.4167 7 16.6667 7.25 16.6667 7.5V8.5C16.6667 8.78125 16.4167 9 16.1667 9H15.1667C14.8855 9 14.6667 8.78125 14.6667 8.5V7.5C14.6667 7.25 14.8855 7 15.1667 7H16.1667ZM8.66675 10.5C8.66675 10.25 8.8855 10 9.16675 10H10.1667C10.4167 10 10.6667 10.25 10.6667 10.5V11.5C10.6667 11.7812 10.4167 12 10.1667 12H9.16675C8.8855 12 8.66675 11.7812 8.66675 11.5V10.5ZM13.1667 10C13.4167 10 13.6667 10.25 13.6667 10.5V11.5C13.6667 11.7812 13.4167 12 13.1667 12H12.1667C11.8855 12 11.6667 11.7812 11.6667 11.5V10.5C11.6667 10.25 11.8855 10 12.1667 10H13.1667ZM14.6667 10.5C14.6667 10.25 14.8855 10 15.1667 10H16.1667C16.4167 10 16.6667 10.25 16.6667 10.5V11.5C16.6667 11.7812 16.4167 12 16.1667 12H15.1667C14.8855 12 14.6667 11.7812 14.6667 11.5V10.5ZM19.9167 4C20.323 4 20.6667 4.34375 20.6667 4.75C20.6667 5.1875 20.323 5.5 19.9167 5.5H19.6667V18.5H19.9167C20.323 18.5 20.6667 18.8438 20.6667 19.25C20.6667 19.6875 20.323 20 19.9167 20H5.41675C4.97925 20 4.66675 19.6875 4.66675 19.25C4.66675 18.8438 4.97925 18.5 5.41675 18.5H5.66675V5.5H5.41675C4.97925 5.5 4.66675 5.1875 4.66675 4.75C4.66675 4.34375 4.97925 4 5.41675 4H19.9167ZM7.16675 5.5V18.5H11.1667V16H10.1667C9.8855 16 9.6355 15.7812 9.698 15.5312C9.91675 14.0938 11.1667 13 12.6667 13C14.1355 13 15.3855 14.0938 15.6042 15.5312C15.6667 15.7812 15.4167 16 15.1667 16H14.1667V18.5H18.1667V5.5H7.16675Z" fill="#4D4D4D"/>
</svg>
