<svg width="25" height="24" viewBox="0 0 25 24" fill="none" xmlns="http://www.w3.org/2000/svg">
<path d="M20.3335 12C20.3335 16.4375 16.7397 20 12.3335 20C7.896 20 4.3335 16.4375 4.3335 12C4.3335 10.3438 4.8335 8.8125 5.7085 7.53125C5.92725 7.1875 6.396 7.09375 6.73975 7.3125C7.0835 7.5625 7.17725 8.03125 6.92725 8.375C6.23975 9.40625 5.80225 10.6562 5.80225 12C5.80225 15.5938 8.73975 18.5 12.3022 18.5C15.896 18.5 18.8335 15.5938 18.8335 12C18.8335 8.6875 16.3022 5.9375 13.0835 5.5625V7.25C13.0835 7.6875 12.7397 8 12.3022 8C11.896 8 11.5522 7.6875 11.5522 7.25V4.75C11.5522 4.34375 11.896 4 12.3022 4C16.7397 4 20.3335 7.59375 20.3335 12ZM12.8335 11.4688C13.146 11.7812 13.146 12.25 12.8335 12.5312C12.5522 12.8438 12.0835 12.8438 11.8022 12.5312L9.30225 10.0312C8.98975 9.75 8.98975 9.28125 9.30225 8.96875C9.5835 8.6875 10.0522 8.6875 10.3335 8.96875L12.8335 11.4688Z" fill="#808080"/>
</svg>
