<svg width="20" height="18" viewBox="0 0 20 18" fill="none" xmlns="http://www.w3.org/2000/svg">
<path id="Vector" d="M11.696 0.501976C11.6377 0.444064 11.5686 0.398217 11.4926 0.367066C11.4166 0.335914 11.3352 0.320069 11.2531 0.320441C11.171 0.320813 11.0897 0.337393 11.014 0.369231C10.9383 0.401069 10.8697 0.447539 10.812 0.505976L9.92995 1.38898C9.87193 1.44693 9.8259 1.51575 9.79449 1.59151C9.76309 1.66726 9.74692 1.74847 9.74692 1.83048C9.74692 1.91248 9.76309 1.99369 9.79449 2.06944C9.8259 2.1452 9.87193 2.21402 9.92995 2.27198L15.411 7.75298H0.697951C0.532629 7.75324 0.374169 7.8191 0.257363 7.93609C0.140556 8.05309 0.074951 8.21165 0.0749512 8.37698V9.62498C0.0749512 9.97097 0.353951 10.248 0.697951 10.25H15.412L9.93095 15.73C9.87293 15.7879 9.8269 15.8568 9.79549 15.9325C9.76409 16.0083 9.74792 16.0895 9.74792 16.1715C9.74792 16.2535 9.76409 16.3347 9.79549 16.4104C9.8269 16.4862 9.87293 16.555 9.93095 16.613L10.813 17.496C11.058 17.74 11.453 17.74 11.696 17.496L19.745 9.44898C19.8605 9.32866 19.9251 9.1683 19.9251 9.00148C19.9251 8.83465 19.8605 8.67429 19.745 8.55398L11.696 0.505976V0.501976Z" fill="#2C64E3"/>
</svg>
